<?xml version="1.0" standalone="no"?><!-- Generator: Gravit.io --><svg xmlns="http://www.w3.org/2000/svg" xmlns:xlink="http://www.w3.org/1999/xlink" style="isolation:isolate" viewBox="0 0 452 470" width="452" height="470"><defs><clipPath id="_clipPath_bj8nGryf6ZUWhVbisyfldmoMStsXWcVs"><rect width="452" height="470"/></clipPath></defs><g clip-path="url(#_clipPath_bj8nGryf6ZUWhVbisyfldmoMStsXWcVs)"><circle vector-effect="non-scaling-stroke" cx="227.2222087707045" cy="226.66666207490147" r="225" fill="rgb(255,255,255)"/><path d=" M 209.5 0.6 C 176.2 4 152 10.7 126.2 23.5 C 58.3 57.2 13.3 119.5 2.3 194.9 C 0 210.6 0 241.4 2.3 257.1 C 9.3 304.8 29.6 347.1 62.1 381.4 C 80.8 401.2 101.3 416.2 126.5 428.6 C 149.3 439.8 170.7 446.4 196.5 450.2 C 209.9 452.1 244.7 451.8 259 449.6 C 303.706 442.751 342.415 424.678 375.444 395.304 C 378.099 392.942 380.718 390.508 383.3 388 C 413.9 358.4 434.9 322.3 444.9 282.4 C 450.3 260.9 451.5 250.7 451.5 226 C 451.4 198.7 449.6 185 442.5 160.9 C 418.1 77.9 345.3 15.1 258.8 2.5 C 248.6 1 217.3 -0.2 209.5 0.6 Z  M 242.8 19 C 247.8 22.1 250 26.5 250 33.5 C 250 44.5 243.8 51 233.5 51 C 223.8 51 218 44.9 218 34.5 C 218 27.3 220.2 22.5 225 19.2 C 229.4 16.3 238.1 16.1 242.8 19 Z  M 208.6 21.2 C 211.3 22.5 213 26.1 213 30.6 C 213 35.3 208.8 39.5 202.6 41.1 L 197.9 42.3 L 198.2 47.9 L 198.5 53.5 L 195.3 53.8 C 191.5 54.2 191.8 55.1 189.5 37 C 188.6 30.1 187.6 23.8 187.4 22.8 C 187 21.5 188.2 21 194.2 20.3 C 201.9 19.3 205.1 19.5 208.6 21.2 Z  M 271.5 22.6 C 279.7 24.7 283 27.4 283 32.2 C 283 36.4 281 39.4 277 41 C 274.9 41.9 274.3 42.6 274.9 43.4 C 276.2 44.9 281.1 58.2 280.6 58.7 C 279.7 59.7 272 56.8 272 55.5 C 272 52.6 267.9 43.2 266.3 42.6 C 264.2 41.7 263.9 42.1 262.5 48.2 C 261.3 53.3 261.2 53.5 258.1 53.3 C 256.3 53.3 254.6 53 254.4 52.7 C 254.1 52.5 255.6 45 257.6 36.1 C 260.7 22.9 261.6 20.1 262.9 20.4 C 263.8 20.7 267.6 21.7 271.5 22.6 Z  M 177.6 28.6 C 177.4 29.2 174.9 30.3 172.1 31 C 169.3 31.7 167 32.3 167 32.5 C 167 32.6 167.5 34.1 168.1 35.9 C 169.3 39.3 169.8 39.5 175.4 37.9 C 178.5 37.1 179.5 37.1 180.1 38.2 C 182.1 41.3 181 42.8 176 44 C 171.8 45 171 45.5 171.5 47.1 C 171.8 48.1 172.3 49.9 172.6 51.1 C 173 52.5 173.7 52.9 174.8 52.5 C 178.3 51.2 185 49.6 185.4 50.1 C 185.6 50.3 186 51.6 186.2 52.9 C 186.5 55.2 185.9 55.6 177.2 58.1 C 172.1 59.6 167.8 60.5 167.6 60.1 C 167.2 59.4 158.8 30.9 158.6 29.6 C 158.6 29.1 162.6 27.5 167.5 26 C 176.5 23.3 176.5 23.3 177.3 25.3 C 177.7 26.4 177.9 27.9 177.6 28.6 Z  M 310.5 35.1 C 314.3 36.8 317.6 38.2 317.8 38.4 C 317.9 38.6 317.5 39.9 316.9 41.3 C 315.8 43.8 315.6 43.9 312.2 42.5 C 306.6 40.1 307.5 38.9 300 57.2 C 296.7 65.3 295.3 66.4 291.6 63.7 C 289.9 62.5 290.1 61.7 294.5 50.9 C 297.1 44.6 299.4 39 299.7 38.4 C 299.9 37.8 298.1 36.5 295.7 35.6 C 291.3 34 291.2 33.8 292.3 31 L 293.4 28.2 L 298.4 30.2 C 301.2 31.3 306.6 33.5 310.5 35.1 Z  M 149.7 38.4 C 153.1 41.3 153.6 47.6 150.6 50.9 C 148.8 52.9 148.8 53 150.5 53 C 152.4 53 165 60 165 61.1 C 165 61.4 163.4 62.4 161.5 63.3 L 158 65 L 151.8 61 C 145.1 56.6 145.1 56.6 143.2 57.9 C 142 58.6 142.1 59.3 143.4 61.9 C 147.2 69.1 147.2 69.8 143.9 71.6 C 142.2 72.4 140.7 73 140.5 72.8 C 140.3 72.6 136.9 65.8 133.1 57.7 L 126.1 42.9 L 130.8 40.8 C 133.4 39.7 136.9 38.2 138.5 37.4 C 143 35.4 146.6 35.7 149.7 38.4 Z  M 340 51.5 C 341 52.7 333.9 86 332.7 86 C 332.3 86 330.8 85.2 329.4 84.3 C 327.1 82.8 326.9 82.2 327.4 78.6 C 328 74.6 327.9 74.4 323.7 71.7 C 318.4 68.5 318.6 68.5 314.9 71 C 312.2 73 311.9 73 309 71.5 C 307.3 70.6 306 69.5 306.2 69 C 306.4 68.5 312.6 63.4 320 57.6 L 333.4 47.1 L 336.3 48.8 C 337.9 49.7 339.5 51 340 51.5 Z  M 110.9 71.1 C 118.4 75.6 124.9 79.6 125.4 80.1 C 125.9 80.5 125 82 123.4 83.4 L 120.5 85.8 L 117.2 83.8 L 113.9 81.8 L 109.5 85.2 C 104.7 88.8 104.4 89.6 106.1 93.4 C 107.2 95.6 106.7 96.5 101.5 102.7 C 98.3 106.4 94.2 111.2 92.3 113.3 L 88.9 117.1 L 76.7 106.4 C 70 100.5 64.4 95.4 64.2 95 C 64.1 94.7 65.1 93.3 66.5 92 L 69 89.7 L 71.3 91.6 C 72.5 92.7 77 96.7 81.4 100.6 L 89.3 107.5 L 93.4 102.7 C 96.7 99.1 97.9 98.3 98.8 99.2 C 100.8 101.2 100.2 99.1 94.6 83.5 L 89.1 68.5 L 92.1 65.7 C 93.7 64.2 95.5 63 96.1 63 C 96.7 63 103.3 66.7 110.9 71.1 Z  M 367.1 72.7 C 371.7 77.7 373 80.4 373 84.8 C 373 89.8 371.3 93.4 367.3 97.2 C 359.4 104.7 349.6 103.3 339.8 93.3 L 335 88.5 L 346.2 76.3 L 357.4 64.1 L 360.9 67 C 362.9 68.5 365.7 71.1 367.1 72.7 Z  M 256.1 73.9 C 310.5 85 354.4 123.2 372.4 174.9 C 379 193.8 380.4 202.9 380.4 226 C 380.4 243.4 380.1 248 378.2 256.6 C 364.4 320 318.4 365.2 254 378.7 C 240.8 381.5 210 381.2 196 378.1 C 192.868 377.429 189.779 376.679 186.734 375.852 C 157.93 368.031 133.115 353.305 113.705 332.78 C 103.07 321.534 94.057 308.546 86.9 294 C 81.3 282.6 75.7 265.6 73.3 252.8 C 70.9 239.9 71 212 73.4 199.1 C 84.7 138.6 128.6 91.2 187.6 76 C 193.7 74.4 202 72.7 206.1 72.1 C 217.5 70.6 244.8 71.5 256.1 73.9 Z  M 393.8 102.5 C 395.1 104.4 396 106.3 395.8 106.8 C 395.1 108.9 377.4 135 376.8 135 C 376.4 135 375.2 133.6 374 132 L 371.9 129 L 373.9 126.4 C 376.6 122.9 376.6 122.6 372.7 117.6 C 369.5 113.3 369.5 113.3 365.8 114.6 C 362.2 115.8 362.1 115.8 359.6 112.5 L 357.1 109.2 L 373.8 104.2 C 383 101.4 390.7 99.1 391 99.1 C 391.3 99 392.6 100.6 393.8 102.5 Z  M 43.5 213.3 C 44 216.7 44.6 217.3 49.3 219.4 L 54.5 221.7 L 49.3 224.4 C 45.2 226.4 44 227.6 44 229.4 C 44 230.7 43.7 233.2 43.4 234.9 L 42.7 238.1 L 38.9 234.4 C 35.2 230.8 35 230.8 29.6 231.4 C 26.5 231.8 24 231.9 24 231.6 C 24 231.3 25 229 26.2 226.6 L 28.4 222.1 L 25.6 216.9 C 23.1 212.4 23 211.9 24.6 212.3 C 25.7 212.6 28.4 213.1 30.6 213.5 C 34.6 214.1 34.9 214 38.1 210 C 41.8 205.4 42.2 205.7 43.5 213.3 Z  M 423.2 223.2 L 428.3 225.6 L 423.2 228.8 C 418.6 231.6 418 232.4 418 235.4 C 418 242 417.1 242.5 412.9 238.4 L 409.1 234.7 L 403.5 235.7 C 400.5 236.2 398 236.5 398 236.3 C 398 236.1 399.1 233.8 400.4 231.2 L 402.8 226.5 L 400.4 222 C 399.1 219.5 398.1 217.2 398 216.9 C 398 216.6 400.4 216.7 403.3 217.1 C 408.5 218 408.5 217.9 412.5 214 L 416.5 209.9 L 417.3 215.3 C 418.2 220.5 418.3 220.8 423.2 223.2 Z  M 177.3 393.1 C 188.6 396.5 192.5 402.2 188.6 409.8 C 186.4 414 183.1 415.3 176.1 414.8 L 170 414.4 L 168.5 419.7 C 167 424.7 166.8 425 164.2 424.4 C 162.7 424 161.1 423.4 160.7 423 C 160 422.4 167.2 394.1 168.7 391.7 C 169.3 390.7 169.4 390.7 177.3 393.1 Z  M 289 406.5 L 299 420.5 L 295.3 421.8 C 291.3 423.1 290.8 422.9 288 418 C 287.3 416.7 286.5 416.7 281.3 418.1 C 275.5 419.6 275.5 419.6 275.2 423.6 C 274.9 427.3 274.6 427.8 271.3 428.8 C 269.2 429.4 267.5 429.8 267.4 429.7 C 267.3 429.5 268.2 416.7 269.9 394.8 C 270 393.9 275.9 392.1 277.7 392.3 C 278.4 392.4 283.4 398.8 289 406.5 Z  M 203.3 398.6 C 204.9 398.9 206 399.8 206 400.8 C 206 402.9 204.6 405.2 203.4 405 C 202.6 404.9 201.8 408.7 199.7 422.2 C 199.2 425.2 199.4 426 200.7 426 C 201.9 426 202.1 426.6 201.5 428.7 C 201.1 430.3 200.7 431.6 200.5 431.8 C 200.1 432.2 188.8 430.2 188.2 429.6 C 187.4 428.7 189.2 425 190.4 425 C 191.3 425 192.1 422.3 192.9 417.2 C 193.6 413 194.4 408 194.7 406.2 C 195.1 403.8 194.9 403 193.8 403 C 192.7 403 192.5 402.1 192.8 399.9 C 193.3 396.6 193.1 396.6 203.3 398.6 Z  M 260 400.1 C 260 401.3 257.1 407.5 253.5 413.9 C 249.9 420.3 247 425.8 247 426.1 C 247 426.4 250.4 426.2 254.6 425.7 C 258.8 425.3 262.3 425 262.5 425.2 C 262.7 425.4 263.1 426.7 263.5 428.1 L 264.1 430.7 L 252.8 431.9 C 246.6 432.6 240.5 433.4 239.3 433.7 C 235 434.7 236.5 429.3 244 416.6 L 251 404.8 L 243 405.5 L 235 406.2 L 235 403.2 L 235 400.2 L 243.3 399.2 C 257.7 397.6 260 397.7 260 400.1 Z  M 232.8 402.5 C 233 403.8 230 408.5 224.6 415.5 C 218.7 423.1 216.5 426.7 217.3 427.2 C 218 427.6 221.5 428 225.3 428 L 232 428 L 232 431.1 L 232 434.3 L 222.8 433.6 C 217.8 433.3 211.7 433 209.3 433 C 205.6 433 205 432.7 205 431 C 205 429.8 209.1 423.9 214 417.7 L 223 406.5 L 215 406.2 C 206.8 405.9 206.1 405.5 207.6 401.6 C 208.1 400.2 210 400 220.4 400.2 C 231.7 400.5 232.5 400.6 232.8 402.5 Z " fill="rgb(6,157,41)"/><path d=" M 230.8 23.7 C 226.3 24.9 223.8 34.4 226.7 40 C 228.85 44.15 232.5 45.475 235.713 44.537 C 238.925 43.6 241.7 40.4 242.1 35.5 C 242.8 26.2 238.5 21.6 230.8 23.7 Z " fill="rgb(6,157,41)"/><path d=" M 197.3 25.6 C 196 26.2 195.5 31.7 196.6 34.4 C 197.3 36.2 200.2 36.5 203.1 35 C 205 33.9 205.7 29.6 204.2 27.3 C 203.3 25.9 199 24.9 197.3 25.6 Z " fill="rgb(6,157,41)"/><path d=" M 266.2 32 C 265.7 34.1 265.5 36.2 265.8 36.5 C 266.8 37.5 272.6 37 273.8 35.8 C 275.6 34 275.2 30.2 273.1 29 C 269.2 27 267.3 27.8 266.2 32 Z " fill="rgb(6,157,41)"/><path d=" M 137.1 43.9 C 135.6 44.9 136.1 48.4 138.3 51.4 C 139.4 52.9 140 53.1 141.8 52.1 C 147 49.3 146.6 43 141.2 43 C 139.7 43 137.9 43.4 137.1 43.9 Z " fill="rgb(6,157,41)"/><path d=" M 327.4 60.3 L 322.7 64.6 L 326.3 66.8 L 329.9 68.9 L 330.9 65.2 C 332.9 57.8 333.2 56 332.7 56 C 332.4 56 330.1 57.9 327.4 60.3 Z " fill="rgb(6,157,41)"/><path d=" M 97 71.3 C 97 72.7 102.1 83 102.8 83 C 103.8 83 108.5 78.1 107.9 77.7 C 107.7 77.5 106.3 76.6 104.8 75.7 C 103.2 74.8 100.9 73.3 99.5 72.4 C 98.1 71.5 97 71 97 71.3 Z " fill="rgb(6,157,41)"/><path d=" M 351.6 81.6 L 344.8 89.1 L 347 91.5 C 351.8 96.7 360 95.3 364.1 88.7 C 366.6 84.7 366 80.6 362.3 76.8 C 360.8 75.3 359.4 74 359.1 74 C 358.8 74 355.4 77.4 351.6 81.6 Z " fill="rgb(6,157,41)"/><path d=" M 210.5 81.7 C 146.3 90 97.3 134.7 83.8 197.3 C 80.7 212 80.7 240 83.8 254.7 C 96.4 312.9 140 356.1 198.5 368.5 C 209.4 370.8 231.4 371.6 243.6 370 C 266.2 367.2 286.9 359.5 306.1 346.8 C 337.5 326 359 295 367.8 257.6 C 370.2 247.6 370.4 244.5 370.5 226.5 C 370.5 209.1 370.2 205.1 368.2 196 C 363.8 176.4 357.5 161.8 346 144.6 C 323.2 110.5 285 87.1 244 82 C 236 81.1 217 80.9 210.5 81.7 Z  M 209.8 106.5 C 263.9 124.3 308.5 163.2 333.6 214.5 C 340.1 227.9 347.7 248.9 348.2 254.9 L 348.5 258.4 L 334 262.1 C 318.9 265.9 266.5 279.9 184.6 302.1 C 158.3 309.3 136.5 314.9 136.3 314.6 C 135.8 314.1 140.6 295.5 142 292.5 C 142.6 291.4 147.1 275 152.1 256 C 181.6 143.8 192.1 104.4 192.5 103.2 C 193.2 101.3 194.9 101.7 209.8 106.5 Z " fill="rgb(139,139,139)"/><path d=" M 197.5 119.9 L 195.8 127 L 199.6 131.3 C 202.3 134.2 206.8 137.2 214.5 141 C 236.7 152.1 253.5 164.6 273.1 184.6 C 280 191.7 287.8 199.3 290.4 201.4 C 294.9 205 301 215.1 301 218.9 C 301 219.6 303.4 224.8 306.4 230.4 C 309.3 235.9 313.2 244.2 315 248.6 L 318.3 256.7 L 328.1 254.2 C 339.6 251.2 339.1 252.9 333 236.5 C 312.6 181.7 269.1 138.3 214 117.7 C 198.3 111.8 199.5 111.7 197.5 119.9 Z " fill="rgb(255,153,0)"/><path d=" M 191.5 142.2 C 190.4 145.6 178 192.7 178 193.7 C 178 194.3 180.4 193.9 183.8 192.7 C 190.4 190.5 195.9 190.9 202 194 L 205.9 196 L 204 192.8 C 200.5 186.7 199 178.4 199 164 C 199 149.3 198 143.6 195 142 C 192.6 140.7 192 140.7 191.5 142.2 Z " fill="rgb(255,153,0)"/><path d=" M 207.7 156.3 C 207.9 161.3 208.2 169.3 208.3 174 C 208.7 184 210.8 189 217 194.2 C 224.6 200.8 231.3 201.4 248.1 197.1 C 254.4 195.5 261.7 193.8 264.3 193.4 L 269.2 192.7 L 264.3 187.8 C 252.3 175.4 232.6 160.7 215.9 151.6 L 207.4 147 L 207.7 156.3 Z " fill="rgb(255,153,0)"/><path d=" M 183.9 202.2 C 176.8 206.3 174.1 215 177.9 222 C 182.9 231.6 195.2 232.8 202.9 224.6 C 206.6 220.7 207 211.8 203.8 207.1 C 199.1 200.3 190.7 198.2 183.9 202.2 Z " fill="rgb(139,139,139)"/><path d=" M 212.6 203.9 C 219.3 220.4 210 237.4 193.6 238.8 C 184.1 239.6 174.4 234.5 170.3 226.7 C 169.6 225.4 166.8 234.4 159.1 263.1 C 153.5 284.1 149.1 301.4 149.3 301.6 C 149.4 301.8 155.8 300.3 163.3 298.3 L 177 294.7 L 177 289.1 C 177 279 183.6 269.3 192.9 265.2 C 197.5 263.2 208.5 263.2 213.1 265.2 C 218.1 267.4 223.8 272.6 226.1 277.2 C 227.5 280 228.6 281 229.8 280.6 C 230.7 280.3 245.9 276.2 263.5 271.5 C 281 266.8 295.6 262.7 295.8 262.5 C 296 262.3 295.6 260.4 294.9 258.3 C 294.2 256.2 293.4 247.5 293.1 239 L 292.5 223.5 L 287.8 216.5 C 279 203.5 278.1 202.7 271.4 202.2 C 266.9 201.9 262.3 202.6 252.5 205.1 C 234.8 209.5 226.7 209.6 218.1 205.4 C 213.5 203.1 212.1 202.7 212.6 203.9 Z  M 257.3 221.4 C 263.8 223.3 267.6 226.4 271 232.3 C 273.5 236.6 274 238.6 274 244 C 274 252.1 271.7 257.4 266.1 262.1 C 258.8 268.4 249.2 269.7 240.5 265.6 C 231.6 261.5 227 254.2 227 244.2 C 227 233.6 233.5 224.5 243.4 221.4 C 248.8 219.7 251.7 219.7 257.3 221.4 Z " fill="rgb(255,153,0)"/><path d=" M 244.4 230.4 C 239.3 232.6 235.6 238.3 235.6 243.9 C 235.6 252.8 241.7 259 250.5 259 C 256.9 259 261.7 256 264.2 250.3 C 269.8 237.7 257 224.9 244.4 230.4 Z " fill="rgb(139,139,139)"/><path d=" M 302.1 246 C 302 251.2 303.4 257.8 304.8 259.2 C 305.4 259.8 306.7 259.9 307.8 259.6 C 309.8 258.9 309.8 258.8 307 252 C 302.6 241.4 302.1 240.7 302.1 246 Z " fill="rgb(255,153,0)"/><path d=" M 195.2 274.1 C 192.8 275.3 189.8 277.9 188.5 279.9 C 186 283.6 184.1 292 185.6 292 C 188.1 292 219 283.4 219 282.7 C 219 280.5 214.6 276 210.7 274.1 C 205.2 271.4 200.6 271.4 195.2 274.1 Z " fill="rgb(139,139,139)"/><path d=" M 380.7 109.2 L 375 111.2 L 377.1 114.1 C 378.3 115.8 379.7 116.9 380.2 116.8 C 381.5 116.3 388.4 107 387.3 107.1 C 386.9 107.1 383.9 108.1 380.7 109.2 Z " fill="rgb(6,157,41)"/><path d=" M 173 403.5 C 171.6 408.6 171.5 408.5 175.2 409.4 C 180.4 410.6 184.1 404.2 180.2 400.7 C 176.8 397.6 174.4 398.5 173 403.5 Z " fill="rgb(6,157,41)"/><path d=" M 275.6 402.6 C 275.3 403.5 275 406.3 275 409 L 275 413.8 L 278.8 412.8 C 280.8 412.3 282.7 411.6 282.9 411.4 C 283.2 411.1 277.1 401 276.5 401 C 276.3 401 275.9 401.7 275.6 402.6 Z " fill="rgb(6,157,41)"/></g></svg>