<?xml version="1.0" standalone="no"?>
<!DOCTYPE svg PUBLIC "-//W3C//DTD SVG 20010904//EN"
 "http://www.w3.org/TR/2001/REC-SVG-20010904/DTD/svg10.dtd">
<svg version="1.0" xmlns="http://www.w3.org/2000/svg"
 width="452.000000pt" height="470.000000pt" viewBox="0 0 452.000000 470.000000"
 preserveAspectRatio="xMidYMid meet">

<g transform="translate(0.000000,470.000000) scale(0.100000,-0.100000)"
fill="#000000" stroke="none">
<path d="M2095 4694 c-333 -34 -575 -101 -833 -229 -679 -337 -1129 -960
-1239 -1714 -23 -157 -23 -465 0 -622 70 -477 273 -900 598 -1243 187 -198
392 -348 644 -472 228 -112 442 -178 700 -216 134 -19 482 -16 625 6 483 74
896 279 1243 616 306 296 516 657 616 1056 54 215 66 317 66 564 -1 273 -19
410 -90 651 -244 830 -972 1458 -1837 1584 -102 15 -415 27 -493 19z m333
-184 c50 -31 72 -75 72 -145 0 -110 -62 -175 -165 -175 -97 0 -155 61 -155
165 0 72 22 120 70 153 44 29 131 31 178 2z m-342 -22 c27 -13 44 -49 44 -94
0 -47 -42 -89 -104 -105 l-47 -12 3 -56 3 -56 -32 -3 c-38 -4 -35 -13 -58 168
-9 69 -19 132 -21 142 -4 13 8 18 68 25 77 10 109 8 144 -9z m629 -14 c82 -21
115 -48 115 -96 0 -42 -20 -72 -60 -88 -21 -9 -27 -16 -21 -24 13 -15 62 -148
57 -153 -9 -10 -86 19 -86 32 0 29 -41 123 -57 129 -21 9 -24 5 -38 -56 -12
-51 -13 -53 -44 -51 -18 0 -35 3 -37 6 -3 2 12 77 32 166 31 132 40 160 53
157 9 -3 47 -13 86 -22z m-939 -60 c-2 -6 -27 -17 -55 -24 -28 -7 -51 -13 -51
-15 0 -1 5 -16 11 -34 12 -34 17 -36 73 -20 31 8 41 8 47 -3 20 -31 9 -46 -41
-58 -42 -10 -50 -15 -45 -31 3 -10 8 -28 11 -40 4 -14 11 -18 22 -14 35 13
102 29 106 24 2 -2 6 -15 8 -28 3 -23 -3 -27 -90 -52 -51 -15 -94 -24 -96 -20
-4 7 -88 292 -90 305 0 5 40 21 89 36 90 27 90 27 98 7 4 -11 6 -26 3 -33z
m1329 -65 c38 -17 71 -31 73 -33 1 -2 -3 -15 -9 -29 -11 -25 -13 -26 -47 -12
-56 24 -47 36 -122 -147 -33 -81 -47 -92 -84 -65 -17 12 -15 20 29 128 26 63
49 119 52 125 2 6 -16 19 -40 28 -44 16 -45 18 -34 46 l11 28 50 -20 c28 -11
82 -33 121 -49z m-1608 -33 c34 -29 39 -92 9 -125 -18 -20 -18 -21 -1 -21 19
0 145 -70 145 -81 0 -3 -16 -13 -35 -22 l-35 -17 -62 40 c-67 44 -67 44 -86
31 -12 -7 -11 -14 2 -40 38 -72 38 -79 5 -97 -17 -8 -32 -14 -34 -12 -2 2 -36
70 -74 151 l-70 148 47 21 c26 11 61 26 77 34 45 20 81 17 112 -10z m1903
-131 c10 -12 -61 -345 -73 -345 -4 0 -19 8 -33 17 -23 15 -25 21 -20 57 6 40
5 42 -37 69 -53 32 -51 32 -88 7 -27 -20 -30 -20 -59 -5 -17 9 -30 20 -28 25
2 5 64 56 138 114 l134 105 29 -17 c16 -9 32 -22 37 -27z m-2291 -196 c75 -45
140 -85 145 -90 5 -4 -4 -19 -20 -33 l-29 -24 -33 20 -33 20 -44 -34 c-48 -36
-51 -44 -34 -82 11 -22 6 -31 -46 -93 -32 -37 -73 -85 -92 -106 l-34 -38 -122
107 c-67 59 -123 110 -125 114 -1 3 9 17 23 30 l25 23 23 -19 c12 -11 57 -51
101 -90 l79 -69 41 48 c33 36 45 44 54 35 20 -20 14 1 -42 157 l-55 150 30 28
c16 15 34 27 40 27 6 0 72 -37 148 -81z m2562 -16 c46 -50 59 -77 59 -121 0
-50 -17 -86 -57 -124 -79 -75 -177 -61 -275 39 l-48 48 112 122 112 122 35
-29 c20 -15 48 -41 62 -57z m-1110 -12 c544 -111 983 -493 1163 -1010 66 -189
80 -280 80 -511 0 -174 -3 -220 -22 -306 -138 -634 -598 -1086 -1242 -1221
-132 -28 -440 -25 -580 6 -490 105 -875 402 -1091 841 -56 114 -112 284 -136
412 -24 129 -23 408 1 537 113 605 552 1079 1142 1231 61 16 144 33 185 39
114 15 387 6 500 -18z m1377 -286 c13 -19 22 -38 20 -43 -7 -21 -184 -282
-190 -282 -4 0 -16 14 -28 30 l-21 30 20 26 c27 35 27 38 -12 88 -32 43 -32
43 -69 30 -36 -12 -37 -12 -62 21 l-25 33 167 50 c92 28 169 51 172 51 3 1 16
-15 28 -34z m-3503 -1108 c5 -34 11 -40 58 -61 l52 -23 -52 -27 c-41 -20 -53
-32 -53 -50 0 -13 -3 -38 -6 -55 l-7 -32 -38 37 c-37 36 -39 36 -93 30 -31 -4
-56 -5 -56 -2 0 3 10 26 22 50 l22 45 -28 52 c-25 45 -26 50 -10 46 11 -3 38
-8 60 -12 40 -6 43 -5 75 35 37 46 41 43 54 -33z m3797 -99 l51 -24 -51 -32
c-46 -28 -52 -36 -52 -66 0 -66 -9 -71 -51 -30 l-38 37 -56 -10 c-30 -5 -55
-8 -55 -6 0 2 11 25 24 51 l24 47 -24 45 c-13 25 -23 48 -24 51 0 3 24 2 53
-2 52 -9 52 -8 92 31 l40 41 8 -54 c9 -52 10 -55 59 -79z m-2459 -1699 c113
-34 152 -91 113 -167 -22 -42 -55 -55 -125 -50 l-61 4 -15 -53 c-15 -50 -17
-53 -43 -47 -15 4 -31 10 -35 14 -7 6 65 289 80 313 6 10 7 10 86 -14z m1117
-134 l100 -140 -37 -13 c-40 -13 -45 -11 -73 38 -7 13 -15 13 -67 -1 -58 -15
-58 -15 -61 -55 -3 -37 -6 -42 -39 -52 -21 -6 -38 -10 -39 -9 -1 2 8 130 25
349 1 9 60 27 78 25 7 -1 57 -65 113 -142z m-857 79 c16 -3 27 -12 27 -22 0
-21 -14 -44 -26 -42 -8 1 -16 -37 -37 -172 -5 -30 -3 -38 10 -38 12 0 14 -6 8
-27 -4 -16 -8 -29 -10 -31 -4 -4 -117 16 -123 22 -8 9 10 46 22 46 9 0 17 27
25 78 7 42 15 92 18 110 4 24 2 32 -9 32 -11 0 -13 9 -10 31 5 33 3 33 105 13z
m567 -15 c0 -12 -29 -74 -65 -138 -36 -64 -65 -119 -65 -122 0 -3 34 -1 76 4
42 4 77 7 79 5 2 -2 6 -15 10 -29 l6 -26 -113 -12 c-62 -7 -123 -15 -135 -18
-43 -10 -28 44 47 171 l70 118 -80 -7 -80 -7 0 30 0 30 83 10 c144 16 167 15
167 -9z m-272 -24 c2 -13 -28 -60 -82 -130 -59 -76 -81 -112 -73 -117 7 -4 42
-8 80 -8 l67 0 0 -31 0 -32 -92 7 c-50 3 -111 6 -135 6 -37 0 -43 3 -43 20 0
12 41 71 90 133 l90 112 -80 3 c-82 3 -89 7 -74 46 5 14 24 16 128 14 113 -3
121 -4 124 -23z"/>
<path d="M2308 4463 c-45 -12 -70 -107 -41 -163 43 -83 146 -53 154 45 7 93
-36 139 -113 118z"/>
<path d="M1973 4444 c-13 -6 -18 -61 -7 -88 7 -18 36 -21 65 -6 19 11 26 54
11 77 -9 14 -52 24 -69 17z"/>
<path d="M2662 4380 c-5 -21 -7 -42 -4 -45 10 -10 68 -5 80 7 18 18 14 56 -7
68 -39 20 -58 12 -69 -30z"/>
<path d="M1371 4261 c-15 -10 -10 -45 12 -75 11 -15 17 -17 35 -7 52 28 48 91
-6 91 -15 0 -33 -4 -41 -9z"/>
<path d="M3274 4097 l-47 -43 36 -22 36 -21 10 37 c20 74 23 92 18 92 -3 0
-26 -19 -53 -43z"/>
<path d="M970 3987 c0 -14 51 -117 58 -117 10 0 57 49 51 53 -2 2 -16 11 -31
20 -16 9 -39 24 -53 33 -14 9 -25 14 -25 11z"/>
<path d="M3516 3884 l-68 -75 22 -24 c48 -52 130 -38 171 28 25 40 19 81 -18
119 -15 15 -29 28 -32 28 -3 0 -37 -34 -75 -76z"/>
<path d="M2105 3883 c-642 -83 -1132 -530 -1267 -1156 -31 -147 -31 -427 0
-574 126 -582 562 -1014 1147 -1138 109 -23 329 -31 451 -15 226 28 433 105
625 232 314 208 529 518 617 892 24 100 26 131 27 311 0 174 -3 214 -23 305
-44 196 -107 342 -222 514 -228 341 -610 575 -1020 626 -80 9 -270 11 -335 3z
m-7 -248 c541 -178 987 -567 1238 -1080 65 -134 141 -344 146 -404 l3 -35
-145 -37 c-151 -38 -675 -178 -1494 -400 -263 -72 -481 -128 -483 -125 -5 5
43 191 57 221 6 11 51 175 101 365 295 1122 400 1516 404 1528 7 19 24 15 173
-33z"/>
<path d="M1975 3501 l-17 -71 38 -43 c27 -29 72 -59 149 -97 222 -111 390
-236 586 -436 69 -71 147 -147 173 -168 45 -36 106 -137 106 -175 0 -7 24 -59
54 -115 29 -55 68 -138 86 -182 l33 -81 98 25 c115 30 110 13 49 177 -204 548
-639 982 -1190 1188 -157 59 -145 60 -165 -22z"/>
<path d="M1915 3278 c-11 -34 -135 -505 -135 -515 0 -6 24 -2 58 10 66 22 121
18 182 -13 l39 -20 -19 32 c-35 61 -50 144 -50 288 0 147 -10 204 -40 220 -24
13 -30 13 -35 -2z"/>
<path d="M2077 3137 c2 -50 5 -130 6 -177 4 -100 25 -150 87 -202 76 -66 143
-72 311 -29 63 16 136 33 162 37 l49 7 -49 49 c-120 124 -317 271 -484 362
l-85 46 3 -93z"/>
<path d="M1839 2678 c-71 -41 -98 -128 -60 -198 50 -96 173 -108 250 -26 37
39 41 128 9 175 -47 68 -131 89 -199 49z"/>
<path d="M2126 2661 c67 -165 -26 -335 -190 -349 -95 -8 -192 43 -233 121 -7
13 -35 -77 -112 -364 -56 -210 -100 -383 -98 -385 1 -2 65 13 140 33 l137 36
0 56 c0 101 66 198 159 239 46 20 156 20 202 0 50 -22 107 -74 130 -120 14
-28 25 -38 37 -34 9 3 161 44 337 91 175 47 321 88 323 90 2 2 -2 21 -9 42 -7
21 -15 108 -18 193 l-6 155 -47 70 c-88 130 -97 138 -164 143 -45 3 -91 -4
-189 -29 -177 -44 -258 -45 -344 -3 -46 23 -60 27 -55 15z m447 -175 c65 -19
103 -50 137 -109 25 -43 30 -63 30 -117 0 -81 -23 -134 -79 -181 -73 -63 -169
-76 -256 -35 -89 41 -135 114 -135 214 0 106 65 197 164 228 54 17 83 17 139
0z"/>
<path d="M2444 2396 c-51 -22 -88 -79 -88 -135 0 -89 61 -151 149 -151 64 0
112 30 137 87 56 126 -72 254 -198 199z"/>
<path d="M3021 2240 c-1 -52 13 -118 27 -132 6 -6 19 -7 30 -4 20 7 20 8 -8
76 -44 106 -49 113 -49 60z"/>
<path d="M1952 1959 c-24 -12 -54 -38 -67 -58 -25 -37 -44 -121 -29 -121 25 0
334 86 334 93 0 22 -44 67 -83 86 -55 27 -101 27 -155 0z"/>
<path d="M3807 3608 l-57 -20 21 -29 c12 -17 26 -28 31 -27 13 5 82 98 71 97
-4 0 -34 -10 -66 -21z"/>
<path d="M1730 665 c-14 -51 -15 -50 22 -59 52 -12 89 52 50 87 -34 31 -58 22
-72 -28z"/>
<path d="M2756 674 c-3 -9 -6 -37 -6 -64 l0 -48 38 10 c20 5 39 12 41 14 3 3
-58 104 -64 104 -2 0 -6 -7 -9 -16z"/>
</g>
</svg>
