<?xml version="1.0" standalone="no"?><!-- Generator: Gravit.io --><svg xmlns="http://www.w3.org/2000/svg" xmlns:xlink="http://www.w3.org/1999/xlink" style="isolation:isolate" viewBox="658.684 54.714 525.049 297.788" width="525.049" height="297.788"><g><path d=" M 1079.576 229.35 L 1173.679 205.057 C 1173.679 205.057 1174.082 166.244 1131.855 176.017 C 1111.346 180.485 1095.662 207.57 1095.662 207.57 L 1085.608 214.272 L 1079.576 229.35 Z " fill-rule="evenodd" fill="none"/><path d=" M 928.366 83.312 C 927.616 81.203 927.616 78.999 928.366 76.889 C 928.8 75.534 929.476 74.22 930.377 72.98 C 932.733 69.997 935.87 67.346 939.626 65.162 C 944.55 61.885 950.268 59.239 956.517 57.343 L 962.549 55.947 L 964.56 55.668 C 969.827 54.812 975.254 54.53 980.646 54.83 L 981.45 54.83 L 981.852 55.109 L 984.265 55.947 C 996.346 59.726 1008.856 62.808 1021.666 65.162 L 1025.687 65.999 L 1027.296 66.279 L 1031.317 67.116 L 1043.382 71.305 C 1062.182 78.98 1079.713 88.062 1095.662 98.39 L 1095.662 98.67 C 1116.222 113.873 1135.3 130.011 1152.767 146.977 C 1158.87 152.835 1164.77 158.793 1170.462 164.848 L 1174.484 168.757 C 1180.348 175.711 1183.534 183.597 1183.733 191.654 C 1183.733 194.446 1182.527 197.518 1181.32 200.31 C 1180.442 202.596 1178.787 204.703 1176.494 206.453 C 1176.069 206.822 1175.516 207.111 1174.886 207.291 L 1174.484 207.291 L 1084.804 230.746 L 1083.999 232.701 C 1082.54 236.649 1081.465 240.66 1080.782 244.708 L 1079.978 248.617 L 1079.978 249.455 C 1079.563 250.904 1078.888 252.311 1077.967 253.643 C 1077.34 254.643 1076.529 255.582 1075.554 256.436 C 1073.906 257.698 1071.833 258.657 1069.522 259.228 C 1065.392 260.298 1060.871 260.396 1056.653 259.507 C 1055.979 259.426 1055.309 259.333 1054.642 259.228 L 1052.229 258.39 C 1050.822 257.913 1049.477 257.352 1048.208 256.715 C 1046.628 255.934 1045.378 254.873 1044.588 253.643 L 1043.784 253.923 L 1042.98 254.481 L 1041.371 254.76 C 1040.065 255.059 1038.656 255.059 1037.349 254.76 L 1036.143 254.481 L 1035.339 253.923 C 1034.771 253.43 1034.359 252.859 1034.132 252.247 L 1033.73 251.13 L 1033.328 248.896 L 1032.524 248.896 L 1032.524 250.013 C 1031.726 252.024 1031.188 254.08 1030.915 256.156 C 1028.913 265.5 1027.704 274.917 1027.296 284.359 C 1027.242 286.406 1027.242 288.454 1027.296 290.502 L 1027.296 290.781 C 1026.941 292.805 1025.832 294.73 1024.078 296.366 L 1022.47 297.762 C 1017.907 301.147 1011.446 302.982 1004.775 302.788 C 1003.426 302.773 1002.08 302.68 1000.754 302.509 C 996.637 302.02 992.842 300.654 989.895 298.6 C 987.869 297.017 986.482 295.09 985.874 293.015 C 985.278 290.988 985.278 288.899 985.874 286.872 L 985.874 286.593 L 995.928 259.786 L 996.33 258.39 C 995.914 258.755 995.511 259.128 995.123 259.507 L 993.917 260.345 C 993.524 260.63 993.122 260.91 992.711 261.183 C 990.591 262.907 987.797 264.168 984.667 264.813 C 982.752 264.991 980.804 264.798 979.037 264.254 C 976.352 263.286 974.223 261.71 973.005 259.786 C 972.548 259.152 972.145 258.499 971.799 257.832 L 971.799 255.598 L 970.592 255.598 C 968.581 255.598 966.571 256.156 964.962 256.436 C 958.76 257.686 952.709 259.273 946.865 261.183 L 946.463 261.183 L 941.637 270.118 L 940.833 271.235 L 940.431 272.073 L 939.224 273.748 L 938.018 275.423 L 936.811 276.54 C 934.837 278.763 932.066 280.591 928.768 281.846 C 927.597 282.128 926.382 282.316 925.149 282.404 C 923.814 282.531 922.462 282.531 921.127 282.404 C 916.921 281.919 913.085 280.439 910.269 278.216 C 909.552 277.588 908.881 276.936 908.258 276.261 C 907.583 275.569 907.042 274.818 906.65 274.027 L 906.248 272.631 C 905.953 271.861 905.549 271.112 905.041 270.397 C 904.448 270.62 903.906 270.902 903.433 271.235 L 901.422 272.631 C 893.072 277.849 882.463 280.992 871.26 281.567 C 866.862 281.977 862.427 282.164 857.989 282.125 L 853.566 282.125 L 851.957 282.404 L 851.153 282.404 L 851.153 283.8 L 850.751 285.476 L 850.751 292.177 C 850.919 293.105 850.919 294.043 850.751 294.97 C 849.927 296.88 848.048 298.487 845.523 299.437 C 841.871 300.929 837.462 301.235 833.458 300.275 C 832.623 300.04 831.817 299.76 831.045 299.437 C 829.138 298.766 827.588 297.69 826.621 296.366 L 826.219 295.807 L 826.219 301.113 L 826.621 307.256 C 827.075 311.359 826.804 315.485 825.817 319.542 L 825.013 321.497 C 824.171 323.259 822.8 324.877 820.991 326.244 C 820.187 326.244 819.785 326.802 819.383 327.081 C 814.872 329.456 809.359 330.732 803.699 330.711 C 801.546 330.774 799.389 330.68 797.264 330.432 C 795.357 330.262 793.474 329.982 791.634 329.595 C 788.048 328.825 784.844 327.374 782.384 325.406 C 781.922 324.967 781.518 324.5 781.178 324.01 L 780.374 322.893 C 778.48 320.605 778.043 317.874 779.167 315.354 L 779.972 314.516 C 780.633 313.623 781.599 312.856 782.787 312.282 L 783.591 312.003 L 783.993 312.003 L 783.993 311.724 C 784.654 311.125 785.195 310.468 785.602 309.769 L 786.808 306.977 L 789.623 297.762 L 788.417 298.041 C 783.252 299.453 777.845 300.392 772.331 300.834 L 771.929 300.834 L 771.929 301.671 L 771.526 302.23 C 770.852 304.236 769.623 306.133 767.907 307.814 C 766.451 309.38 764.532 310.713 762.277 311.724 C 758.45 313.671 753.492 314.192 749.006 313.12 C 745.962 312.35 743.212 311.108 740.963 309.49 L 740.963 310.328 C 740.494 311.673 739.354 312.86 737.746 313.678 C 735.41 314.845 732.578 315.435 729.702 315.354 C 728.351 315.37 727.001 315.276 725.681 315.074 C 724.295 314.912 722.945 314.631 721.659 314.237 C 719.435 313.691 717.575 312.598 716.431 311.165 C 716.161 310.627 716.025 310.06 716.029 309.49 L 713.214 309.49 C 710.709 309.663 708.332 310.343 706.378 311.444 C 704.064 312.906 702.274 314.723 701.15 316.75 L 700.345 317.588 L 699.943 318.425 C 699.59 319.343 699.321 320.276 699.139 321.218 L 698.335 324.568 L 697.128 334.341 L 696.324 337.692 L 695.519 342.439 L 694.715 344.673 L 693.911 346.348 C 692.564 348.304 690.293 349.881 687.476 350.816 C 683.153 352.386 678.185 352.879 673.401 352.212 C 669.159 351.571 665.26 350.12 662.141 348.024 C 661.081 347.212 660.261 346.263 659.728 345.232 C 658.49 342.613 658.35 339.805 659.326 337.134 C 659.63 336.001 660.033 334.882 660.532 333.783 L 661.739 331.27 L 663.347 328.198 L 665.76 324.289 L 665.76 323.451 L 666.564 322.055 L 666.564 320.938 L 667.369 319.821 L 664.956 318.425 L 663.749 317.588 L 662.945 317.308 C 662.488 316.966 662.084 316.592 661.739 316.191 C 660.16 314.242 659.592 311.975 660.13 309.769 L 660.13 308.652 L 660.532 307.256 C 660.877 306.099 661.417 304.974 662.141 303.905 C 662.595 303.133 663.133 302.387 663.749 301.671 C 664.27 301.034 664.951 300.467 665.76 299.996 L 666.564 299.437 C 667.665 299.106 668.739 298.733 669.782 298.321 C 671.165 297.727 672.389 296.971 673.401 296.087 C 674.824 294.787 676.038 293.382 677.02 291.898 L 680.238 287.151 C 683.775 282.183 688.091 277.501 693.107 273.19 C 697.906 269.259 703.784 266.032 710.399 263.696 L 711.203 263.696 L 712.008 263.137 C 712.985 262.711 713.925 262.245 714.823 261.741 L 716.834 260.345 C 719.62 258.558 722.303 256.695 724.877 254.76 C 724.556 252.326 724.828 249.872 725.681 247.5 C 726.887 244.708 728.898 241.916 731.713 239.123 C 734.93 236.052 739.354 233.259 743.778 230.746 C 749.006 228.233 754.636 226.558 759.864 225.162 L 763.885 224.324 C 778.488 212.296 792.966 200.196 807.318 188.024 C 806.004 185.603 805.192 183.064 804.905 180.485 C 804.52 176.957 805.347 173.416 807.318 170.153 C 810.937 164.289 816.97 159.263 824.611 155.633 C 830.808 152.68 837.774 150.594 845.12 149.49 L 846.729 149.49 L 854.37 148.373 L 886.542 120.45 C 885.317 113.826 887.45 107.113 892.574 101.462 C 898.447 94.088 907.83 88.362 919.117 85.266 L 925.953 83.591 L 927.964 83.591 L 928.366 83.312 Z  M 987.08 101.462 C 988.612 104.335 989.56 107.342 989.895 110.397 C 990.483 116.035 988.664 121.668 984.667 126.593 L 981.45 130.502 C 973.703 137.825 962.431 142.977 949.68 145.022 C 932.922 148.387 914.851 145.773 901.422 138.041 C 896.93 135.409 893.239 132.181 890.564 128.547 L 889.759 126.872 L 864.424 148.373 L 867.641 148.373 C 878.097 149.211 888.955 151.724 897.4 156.471 C 903.56 159.861 908.17 164.42 910.671 169.595 C 912.92 174.932 912.495 180.642 909.465 185.79 C 905.845 191.375 899.411 196.401 891.77 199.752 C 881.345 204.695 869.004 207.324 856.381 207.291 L 850.348 207.291 C 839.381 206.666 828.907 203.854 820.187 199.193 C 816.961 197.438 814.117 195.369 811.742 193.05 L 782.787 217.064 L 775.95 222.649 C 781.58 222.649 787.612 222.649 793.243 223.207 C 803.472 224.192 812.872 227.653 819.785 232.98 C 824.089 236.624 826.622 241.12 827.023 245.825 C 827.204 247.981 826.933 250.145 826.219 252.247 C 823.617 258.517 818.103 264.015 810.535 267.884 C 805.643 270.768 800.063 273.036 794.047 274.586 C 780.659 278.077 766.031 278.565 752.223 275.982 C 743.108 274.141 735.166 270.202 729.702 264.813 C 728.726 263.661 727.918 262.445 727.29 261.183 L 726.887 261.183 C 723.278 263.531 719.521 265.767 715.627 267.884 L 714.823 268.163 L 713.616 268.722 L 712.008 269.28 C 708.68 270.509 705.575 272.009 702.758 273.748 C 698.737 276.54 695.519 279.333 692.704 282.404 C 690.969 284.403 689.359 286.452 687.879 288.547 L 683.857 294.132 L 683.857 294.97 L 682.651 296.087 C 680.693 298.617 677.944 300.811 674.607 302.509 C 673.478 303.065 672.265 303.533 670.988 303.905 L 670.184 305.022 L 668.977 306.697 C 668.327 307.958 667.921 309.272 667.771 310.607 L 667.771 311.724 C 667.771 312.561 667.771 313.12 668.575 313.678 L 670.184 314.516 L 672.195 315.633 L 672.999 315.912 L 674.205 317.029 C 675.01 317.588 675.01 318.425 675.01 319.263 L 675.01 322.055 L 674.205 323.172 C 674.205 324.289 672.999 325.685 672.597 326.802 L 670.184 330.991 C 668.704 333.532 667.494 336.145 666.564 338.809 L 666.564 343.277 L 667.771 344.394 L 668.977 345.232 L 671.39 346.069 C 674.607 347.465 678.629 347.745 682.651 346.907 C 684.22 346.519 685.61 345.843 686.672 344.952 L 687.476 344.115 L 687.879 343.277 L 688.281 341.602 L 689.889 334.9 L 691.096 325.965 C 691.096 324.01 691.9 322.055 692.302 320.38 C 692.584 318.876 692.986 317.385 693.509 315.912 L 695.117 313.958 L 696.726 312.003 C 699.383 308.619 703.868 306.108 709.193 305.022 L 713.214 304.464 L 722.464 304.464 L 722.866 304.743 L 723.268 304.743 L 724.072 305.581 L 724.474 306.139 L 724.474 308.094 L 723.67 308.931 L 724.474 309.211 L 725.681 309.49 L 727.29 310.048 L 729.702 310.048 C 730.634 310.163 731.586 310.163 732.518 310.048 L 733.724 309.211 L 733.724 303.347 L 734.528 301.113 L 735.735 300.275 C 736.203 300.007 736.753 299.816 737.343 299.717 L 738.952 299.717 L 740.158 299.996 C 741.767 300.554 742.571 301.392 743.376 302.23 L 743.778 303.347 L 744.18 303.626 L 746.191 305.581 L 749.006 307.256 C 750.212 307.814 751.821 308.373 753.027 308.373 L 756.245 308.373 L 758.657 307.535 C 760.518 306.58 762.033 305.338 763.081 303.905 C 763.564 303.377 763.968 302.815 764.288 302.23 C 764.655 301.322 764.791 300.377 764.69 299.437 L 764.69 297.762 C 765.179 296.919 766.23 296.294 767.505 296.087 L 769.918 296.087 L 771.526 295.807 C 775.95 295.249 780.374 294.691 784.797 293.574 C 787.33 292.981 789.658 292.031 791.634 290.781 L 792.036 290.223 L 793.243 290.223 C 794.629 289.885 796.171 290.099 797.264 290.781 L 797.666 291.34 C 797.863 291.602 797.999 291.885 798.068 292.177 L 798.068 292.736 C 797.34 296.267 796.67 299.805 796.058 303.347 C 795.166 306.685 793.819 309.958 792.036 313.12 C 791.048 314.267 789.666 315.226 788.015 315.912 L 788.015 316.191 L 787.21 316.471 L 787.21 316.75 C 786.406 317.029 786.406 317.588 786.406 318.146 L 786.406 318.984 L 787.612 320.938 C 789.109 322.729 791.568 324.035 794.449 324.568 L 797.666 325.127 C 800.86 325.513 804.125 325.513 807.318 325.127 C 809.329 325.127 811.34 324.568 812.948 324.01 C 814.59 323.315 815.969 322.358 816.97 321.218 C 818.136 320.14 818.958 318.903 819.383 317.588 C 820.187 314.795 820.187 312.561 819.785 310.048 L 819.785 306.418 L 818.98 301.671 L 818.98 294.132 C 819.42 291.647 820.657 289.261 822.6 287.151 L 823.404 286.314 C 824.203 285.472 825.315 284.797 826.621 284.359 L 827.828 284.08 L 828.632 284.08 C 829.693 284.09 830.705 284.391 831.447 284.917 C 832.654 285.755 833.056 286.872 833.458 287.989 L 833.458 293.853 L 834.262 294.411 C 834.767 294.639 835.306 294.826 835.871 294.97 C 837.077 295.249 839.088 295.528 840.697 295.249 C 841.472 295.115 842.172 294.823 842.707 294.411 C 843.914 293.853 843.914 292.736 843.914 291.898 L 843.914 284.08 C 843.838 282.515 844.396 280.968 845.523 279.612 L 846.729 278.774 C 847.1 278.557 847.504 278.37 847.935 278.216 C 848.684 277.865 849.495 277.584 850.348 277.378 C 851.935 277.153 853.555 277.059 855.174 277.099 L 860.402 277.099 C 864.424 277.099 867.641 277.099 871.662 276.54 C 880.507 275.69 888.85 273.18 895.792 269.28 L 896.998 268.443 L 898.607 267.605 L 899.411 267.047 C 900.894 266.159 902.705 265.579 904.639 265.371 L 906.65 265.371 L 908.258 265.65 L 909.867 266.209 L 911.476 267.605 L 913.486 270.956 L 913.889 272.073 L 913.889 272.631 C 915.286 274.397 917.378 275.849 919.921 276.82 C 921.043 277.209 922.286 277.401 923.54 277.378 C 925.521 277.287 927.383 276.69 928.768 275.703 L 929.17 275.144 L 930.377 274.307 L 931.181 273.19 C 932.069 272.295 932.875 271.362 933.594 270.397 L 934.8 268.163 L 940.431 258.67 L 940.833 257.832 L 941.637 257.553 L 942.039 257.273 C 944.888 256.196 947.845 255.263 950.887 254.481 C 955.099 253.308 959.394 252.283 963.755 251.41 L 966.168 250.851 L 968.179 250.851 C 969.769 250.592 971.381 250.405 973.005 250.293 C 974.534 250.43 975.951 250.922 977.027 251.689 C 978.025 252.264 978.731 253.047 979.037 253.923 L 979.037 256.715 C 979.521 257.533 980.201 258.289 981.048 258.949 C 981.473 259.318 982.027 259.606 982.657 259.786 L 984.667 259.786 L 985.07 259.507 C 985.958 259.117 986.769 258.648 987.483 258.111 C 988.48 257.502 989.42 256.849 990.298 256.156 L 992.308 254.202 L 994.319 252.526 L 996.732 250.293 L 999.949 247.221 L 1000.754 246.663 L 1001.558 245.825 C 1002.119 245.435 1002.809 245.147 1003.569 244.987 L 1005.579 244.987 L 1006.786 245.546 L 1007.188 245.825 L 1007.188 246.104 L 1007.992 246.942 L 1007.992 249.455 L 1006.786 252.526 L 1004.373 258.67 L 999.145 273.19 L 995.123 283.521 L 993.113 287.989 C 992.782 289.282 992.782 290.605 993.113 291.898 C 993.614 292.94 994.438 293.893 995.526 294.691 C 997.134 296.366 999.547 297.204 1002.362 297.483 C 1004.225 297.707 1006.129 297.707 1007.992 297.483 L 1009.601 297.483 L 1011.21 297.204 C 1014.381 296.624 1017.114 295.226 1018.85 293.294 L 1019.253 292.177 L 1020.057 290.223 L 1020.057 287.151 C 1021.018 276.612 1022.359 266.091 1024.078 255.598 L 1024.078 252.806 L 1024.481 251.13 L 1025.285 249.455 L 1025.687 247.78 C 1026.027 247.059 1026.574 246.394 1027.296 245.825 L 1028.502 245.266 L 1029.306 244.708 L 1031.317 244.15 L 1032.122 243.87 L 1034.534 243.312 L 1036.143 243.312 L 1037.349 243.591 L 1038.154 244.15 C 1039.36 244.708 1040.165 245.546 1040.567 246.383 L 1040.567 247.78 C 1041.29 245.863 1041.694 243.896 1041.773 241.916 L 1041.773 241.357 L 1042.98 240.24 L 1044.186 239.403 C 1045.108 238.788 1046.203 238.312 1047.403 238.006 L 1049.414 238.006 C 1050.324 238.104 1051.168 238.397 1051.827 238.844 L 1052.229 239.403 C 1053.436 240.519 1053.838 242.195 1053.436 243.312 L 1053.436 244.708 L 1052.229 247.78 L 1052.229 251.689 L 1053.436 252.526 L 1054.642 253.085 C 1056.287 253.711 1058.045 254.181 1059.87 254.481 C 1060.265 254.589 1060.668 254.682 1061.077 254.76 L 1062.685 254.76 C 1064.294 255.04 1066.305 254.76 1067.913 254.481 L 1068.717 253.923 C 1070.728 253.085 1071.935 251.41 1072.739 249.734 L 1072.739 248.896 L 1073.543 248.059 L 1073.543 246.383 L 1074.348 243.87 C 1075.824 237.671 1077.702 231.522 1079.978 225.441 L 1079.978 224.324 L 1079.576 220.415 C 1079.454 217.678 1080.429 214.971 1082.391 212.596 C 1083.852 211.108 1085.776 209.868 1088.021 208.966 L 1096.064 205.895 C 1097.043 205.47 1097.983 205.004 1098.879 204.499 L 1098.879 203.94 L 1098.477 203.382 L 1097.672 201.427 L 1093.651 192.771 C 1089.318 182.391 1084.354 172.143 1078.771 162.055 C 1077.602 160.406 1076.258 158.819 1074.75 157.308 L 1073.543 156.75 C 1058.479 156.534 1045.184 149.86 1040.165 139.996 L 1039.36 138.6 C 1026.315 125.472 1010.908 113.555 993.515 103.137 C 992.624 102.71 991.682 102.336 990.7 102.02 L 988.287 101.462 L 987.483 101.462 L 987.08 101.462 Z  M 768.711 229.071 C 761.721 230.257 755.063 232.238 749.006 234.935 C 744.984 236.889 741.767 239.123 738.55 241.636 C 736.368 243.751 734.735 246.113 733.724 248.617 C 732.242 251.889 732.242 255.398 733.724 258.67 C 734.394 260.058 735.342 261.374 736.539 262.579 C 740.561 266.488 746.593 269.001 752.625 270.677 L 755.842 271.235 L 760.266 272.073 C 764.506 272.627 768.829 272.814 773.135 272.631 C 785.798 272.019 797.878 268.703 807.72 263.137 L 810.133 261.462 C 815.588 257.728 819.001 252.791 819.785 247.5 C 819.891 245.215 819.345 242.937 818.176 240.799 C 817.004 238.94 815.371 237.239 813.35 235.773 C 810.79 233.944 807.798 232.432 804.503 231.305 C 800.337 229.578 795.663 228.528 790.83 228.233 C 783.739 227.468 776.503 227.657 769.516 228.792 L 768.711 228.792 L 768.711 229.071 Z  M 924.345 229.909 L 925.551 229.071 C 927.078 228.327 928.692 227.673 930.377 227.116 C 931.667 226.732 933.016 226.451 934.398 226.279 L 937.616 226.279 C 939.078 226.389 940.469 226.775 941.637 227.396 C 942.441 227.396 942.441 227.954 942.844 228.233 C 944.729 229.795 945.73 231.781 945.659 233.818 L 945.659 235.493 C 945.748 238.005 944.614 240.465 942.441 242.474 C 939.063 246.102 934.691 249.233 929.572 251.689 C 923.533 254.89 916.906 257.52 909.867 259.507 L 898.607 262.858 L 894.987 263.696 C 883.964 266.398 872.675 268.545 861.206 270.118 L 853.968 270.118 C 850.673 270.123 847.451 269.442 844.718 268.163 C 843.79 267.591 842.978 266.933 842.305 266.209 C 841.825 265.679 841.42 265.118 841.099 264.533 C 840.738 263.53 840.602 262.494 840.697 261.462 C 840.697 260.066 840.697 258.67 841.501 257.273 C 842.494 255.301 843.845 253.424 845.523 251.689 C 847.131 249.455 849.544 247.5 851.957 245.825 C 859.034 240.887 867.943 237.408 877.695 235.773 L 879.706 235.493 L 882.521 235.214 L 886.542 234.656 L 900.617 232.98 L 916.704 230.467 L 919.921 230.188 L 923.942 229.629 L 924.345 229.909 Z  M 913.889 236.61 C 902.855 238.417 891.72 239.908 880.51 241.078 C 870.328 242.621 861.232 246.569 854.772 252.247 C 852.143 254.393 850.098 256.853 848.74 259.507 L 848.74 263.417 L 849.142 263.975 C 849.946 264.533 851.153 265.092 852.359 265.092 L 853.566 265.092 L 854.37 265.371 C 855.573 265.459 856.786 265.459 857.989 265.371 L 862.815 265.371 L 866.032 264.813 L 872.467 263.696 L 872.467 263.417 C 873.037 263.035 873.725 262.749 874.478 262.579 L 877.293 261.741 C 886.448 257.775 895.307 253.488 903.835 248.896 C 905.275 247.938 906.619 246.912 907.856 245.825 C 908.34 245.609 908.751 245.323 909.063 244.987 L 909.063 243.591 C 909.099 242.635 909.371 241.691 909.867 240.799 C 910.642 239.707 911.586 238.677 912.682 237.727 L 913.889 236.61 Z  M 938.018 235.493 L 937.616 235.214 C 937.291 234.958 936.875 234.765 936.409 234.656 L 932.388 234.656 C 930.648 234.561 928.9 234.561 927.16 234.656 C 922.774 237.067 919.205 240.117 916.704 243.591 L 916.301 244.15 L 916.301 245.825 C 915.878 247.278 914.906 248.627 913.486 249.734 C 910.252 252.065 906.756 254.212 903.03 256.156 C 913.628 252.843 923.509 248.52 932.388 243.312 L 934.398 241.636 C 936.376 239.851 937.626 237.729 938.018 235.493 Z  M 1087.216 224.882 L 1088.021 224.324 L 1137.888 211.479 L 1170.06 203.102 C 1169.524 199.131 1168.447 195.205 1166.843 191.375 C 1166.277 189.955 1165.606 188.557 1164.832 187.186 C 1162.645 183.725 1159 180.804 1154.376 178.809 C 1151.882 177.886 1149.147 177.316 1146.333 177.134 C 1143.379 176.947 1140.403 177.041 1137.486 177.413 L 1136.681 177.413 C 1134.45 177.797 1132.291 178.359 1130.247 179.088 C 1127.922 179.917 1125.759 180.949 1123.812 182.16 C 1120.997 183.835 1118.987 185.79 1116.574 187.745 C 1111.809 191.666 1107.757 195.98 1104.509 200.589 L 1104.509 201.148 L 1105.313 202.544 L 1105.716 203.382 L 1105.716 203.94 L 1106.118 205.615 L 1106.118 206.453 L 1105.716 207.012 C 1104.521 208.241 1102.847 209.21 1100.89 209.804 L 1099.683 210.362 L 1098.477 210.921 C 1095.5 212.194 1092.551 213.497 1089.629 214.83 L 1088.423 215.389 C 1086.911 217.053 1086.206 219.01 1086.412 220.973 L 1086.412 222.369 L 1086.814 223.766 L 1087.216 224.882 Z  M 978.635 146.697 C 987.864 145.252 997.355 144.782 1006.786 145.301 C 1010.451 145.576 1014.08 146.043 1017.644 146.697 L 1021.666 147.535 C 1030.457 149.524 1038.079 153.445 1043.382 158.704 C 1045.657 161.339 1047.033 164.3 1047.403 167.361 L 1047.403 174.062 C 1044.396 181.485 1038.228 188.104 1029.709 193.05 C 1011.021 203.156 987.18 207.496 963.755 205.057 C 957.114 204.386 950.707 202.871 944.854 200.589 C 941.211 199.115 937.949 197.227 935.203 195.005 C 929.397 190.202 926.9 183.879 928.366 177.692 C 929.862 171.413 934.234 165.636 940.833 161.218 C 943.432 159.375 946.258 157.693 949.278 156.191 C 957.518 152.063 966.791 149.033 976.624 147.256 L 978.233 146.977 L 978.635 146.697 Z  M 853.968 153.958 L 847.533 154.516 C 842.305 155.354 837.479 156.75 832.654 158.425 C 828.632 160.38 824.611 162.334 820.991 165.127 C 818.273 167.174 816.095 169.537 814.557 172.108 C 811.421 177.729 812.317 184.051 816.97 189.141 C 821.562 193.985 828.358 197.622 836.273 199.472 C 841.509 200.988 847.093 201.839 852.761 201.985 C 859.131 202.307 865.533 201.835 871.662 200.589 C 878.328 199.363 884.603 197.28 890.161 194.446 C 896.809 190.965 901.616 186.057 903.835 180.485 L 904.639 177.413 C 904.932 173.457 903.381 169.54 900.215 166.244 C 898.056 163.894 895.336 161.817 892.172 160.101 C 880.938 154.893 867.355 152.709 853.968 153.958 Z  M 978.635 152.282 C 970.318 153.891 962.438 156.438 955.31 159.821 C 950.484 162.055 946.463 164.848 943.246 167.64 C 940.656 169.908 938.618 172.454 937.213 175.179 C 936.36 176.798 935.819 178.488 935.605 180.205 C 935.54 183.151 936.654 186.05 938.822 188.582 C 941.637 192.771 946.865 195.563 952.495 197.239 C 957.723 199.193 963.755 200.031 969.386 200.589 C 978.837 201.32 988.402 200.751 997.536 198.914 C 1006.786 196.959 1015.633 194.167 1023.274 189.978 C 1027.698 187.745 1031.719 184.952 1034.937 181.602 C 1038.502 178.081 1040.463 173.898 1040.567 169.595 C 1040.488 164.837 1037.399 160.343 1032.122 157.308 C 1028.893 155.403 1025.221 153.892 1021.263 152.841 C 1016.105 151.467 1010.686 150.62 1005.177 150.328 C 996.656 149.854 988.081 150.421 979.842 152.003 L 978.233 152.282 L 978.635 152.282 Z  M 1175.69 195.284 C 1176.698 191.876 1176.698 188.361 1175.69 184.952 C 1174.38 180.191 1171.788 175.643 1168.049 171.549 C 1165.792 168.784 1163.377 166.083 1160.81 163.451 L 1155.18 157.867 C 1138.809 141.203 1120.803 125.343 1101.292 110.397 L 1091.64 102.858 L 1091.238 102.3 C 1075.216 92.033 1057.695 82.955 1038.958 75.214 C 1034.345 73.487 1029.495 72.084 1024.481 71.026 L 1020.057 70.188 C 1006.77 67.505 993.741 64.241 981.048 60.415 L 979.842 60.136 L 978.635 60.136 C 965.783 59.474 953.153 62.737 944.05 69.071 C 942.559 70.096 941.212 71.219 940.028 72.422 C 939.475 72.782 938.939 73.154 938.42 73.539 C 936.426 75.506 935.307 77.836 935.203 80.24 L 935.203 81.357 L 935.605 82.474 C 947.359 81.465 959.259 83.236 969.386 87.5 C 973.407 89.176 977.429 91.689 981.048 94.481 C 984.457 95.389 987.95 96.135 991.504 96.715 L 993.113 97.273 C 998.142 99.003 1002.754 101.264 1006.786 103.975 C 1016.236 109.809 1024.855 116.261 1032.524 123.242 C 1037.281 127.449 1041.711 131.83 1045.795 136.366 L 1046.599 137.204 L 1047.001 137.762 C 1049.012 139.996 1052.229 141.671 1055.044 143.347 L 1062.283 146.139 L 1068.717 148.931 L 1071.13 149.49 L 1076.76 152.282 L 1078.369 152.841 L 1079.978 153.958 C 1083.691 157.464 1086.67 161.319 1088.825 165.406 L 1091.64 170.991 C 1095.297 178.463 1098.65 186.005 1101.694 193.608 L 1104.107 191.095 C 1108.319 186.421 1113.313 182.109 1118.987 178.251 C 1122.159 176.434 1125.677 174.931 1129.443 173.783 C 1135.452 172.156 1141.912 171.488 1148.344 171.828 C 1153.208 172.242 1157.806 173.597 1161.615 175.738 C 1167.465 179.042 1171.683 183.533 1173.679 188.582 L 1174.484 191.095 C 1175.118 192.472 1175.655 193.87 1176.092 195.284 L 1175.69 195.284 Z  M 928.366 88.896 L 922.334 90.293 C 912.824 93.081 904.809 97.865 899.411 103.975 C 895.373 109.081 893.955 114.989 895.389 120.729 C 897.524 128.769 905.404 135.503 916.301 138.6 C 926.446 141.705 937.851 142.2 948.474 139.996 C 961.161 137.833 972.044 132.191 978.635 124.359 C 981.678 120.221 983.067 115.593 982.657 110.956 C 982.002 103.053 975.65 95.913 965.766 91.968 C 961.065 90.019 955.883 88.694 950.484 88.059 C 943.668 87.239 936.678 87.429 929.975 88.617 L 928.366 88.617 L 928.366 88.896 Z " fill-rule="evenodd" fill="rgb(225,225,6)"/></g><path d=" M 932.697 186.482 C 930.61 173.002 953.438 158.421 983.644 153.942 C 1013.849 149.463 1040.066 156.771 1042.154 170.251 C 1044.241 183.731 1021.412 198.311 991.207 202.79 C 961.002 207.269 934.784 199.962 932.697 186.482 Z " fill="none" vector-effect="non-scaling-stroke" stroke-width="10" stroke="rgb(255,0,0)" stroke-linejoin="miter" stroke-linecap="square" stroke-miterlimit="3"/><path d=" M 845.229 266.396 C 841.87 258.198 860.73 243.072 887.319 232.638 C 913.908 222.204 938.222 220.388 941.581 228.586 C 944.94 236.783 926.08 251.91 899.491 262.344 C 872.902 272.778 848.588 274.593 845.229 266.396 Z " fill="none" vector-effect="non-scaling-stroke" stroke-width="10" stroke="rgb(255,0,0)" stroke-linejoin="miter" stroke-linecap="square" stroke-miterlimit="3"/><path d=" M 809.544 185.496 C 807.536 172.528 828.239 158.688 855.747 154.609 C 883.255 150.53 907.218 157.747 909.225 170.715 C 911.233 183.682 890.531 197.522 863.023 201.601 C 835.515 205.681 811.552 198.464 809.544 185.496 Z " fill="none" vector-effect="non-scaling-stroke" stroke-width="10" stroke="rgb(255,0,0)" stroke-linejoin="miter" stroke-linecap="square" stroke-miterlimit="3"/><path d=" M 910.81 256.161 C 907.967 254.33 906.167 252.014 905.756 249.33 C 904.443 240.755 917.795 231.611 935.667 228.759" fill="none" vector-effect="non-scaling-stroke" stroke-width="10" stroke="rgb(255,0,0)" stroke-linejoin="miter" stroke-linecap="square" stroke-miterlimit="3"/><path d=" M 1003.746 76.355 C 1007.808 77.529 1012.738 79.426 1018.254 82.009 C 1035.879 90.257 1052.948 102.432 1056.667 109.367" fill="none" vector-effect="non-scaling-stroke" stroke-width="7" stroke="rgb(213,213,8)" stroke-linejoin="miter" stroke-linecap="square" stroke-miterlimit="3"/><path d=" M 1058.728 126.395 C 1062.494 128.293 1066.973 131.061 1071.898 134.609 C 1087.63 145.944 1102.065 161.033 1104.39 168.527" fill="none" vector-effect="non-scaling-stroke" stroke-width="7" stroke="rgb(213,213,8)" stroke-linejoin="miter" stroke-linecap="square" stroke-miterlimit="3"/><path d=" M 733.172 253.115 C 731.385 241.321 750.787 228.586 776.472 224.694 C 802.157 220.802 824.46 227.218 826.248 239.012 C 828.035 250.805 808.633 263.54 782.948 267.432 C 757.263 271.324 734.959 264.909 733.172 253.115 Z " fill="none" vector-effect="non-scaling-stroke" stroke-width="10" stroke="rgb(255,0,0)" stroke-linejoin="miter" stroke-linecap="square" stroke-miterlimit="3"/><path d=" M 894.951 117.077 C 892.576 101.739 911.548 86.188 937.29 82.37 C 963.032 78.553 985.859 87.906 988.234 103.244 C 990.609 118.582 971.637 134.133 945.895 137.95 C 920.153 141.768 897.326 132.414 894.951 117.077 Z " fill="none" vector-effect="non-scaling-stroke" stroke-width="10" stroke="rgb(255,0,0)" stroke-linejoin="miter" stroke-linecap="square" stroke-miterlimit="3"/></svg>