<?xml version="1.0" standalone="no"?>
<!DOCTYPE svg PUBLIC "-//W3C//DTD SVG 20010904//EN"
 "http://www.w3.org/TR/2001/REC-SVG-20010904/DTD/svg10.dtd">
<svg version="1.0" xmlns="http://www.w3.org/2000/svg"
 width="220.000000pt" height="220.000000pt" viewBox="0 0 220.000000 220.000000"
 preserveAspectRatio="xMidYMid meet">
<metadata>
Created by potrace 1.15, written by Peter Selinger 2001-2017
</metadata>
<g transform="translate(0.000000,220.000000) scale(0.100000,-0.100000)"
fill="#000000" stroke="none">
<path d="M492 1678 c-7 -7 -12 -20 -12 -30 0 -14 8 -18 40 -18 22 0 40 -4 40
-10 0 -6 -28 -10 -64 -10 -56 0 -67 -3 -80 -22 -30 -42 -10 -128 30 -128 8 0
14 10 14 23 0 41 38 65 105 69 l60 3 3 53 c2 31 -2 60 -9 68 -14 17 -110 19
-127 2z"/>
<path d="M849 1606 l-34 -11 -3 -94 c-2 -56 1 -98 8 -105 7 -7 10 3 10 32 l0
43 34 -6 c60 -12 94 47 67 118 -12 30 -37 37 -82 23z"/>
<path d="M1433 1608 c-41 -20 -48 -100 -12 -130 45 -38 95 -12 105 53 10 57
-44 101 -93 77z"/>
<path d="M20 1082 c0 -66 25 -211 51 -291 88 -278 285 -508 547 -640 148 -75
309 -111 490 -111 337 0 650 161 859 440 119 158 203 397 203 576 l0 64 -1052
0 c-579 0 -1063 3 -1075 6 -22 6 -23 3 -23 -44z m575 -293 l0 -194 -80 -3
c-123 -5 -175 33 -175 128 0 88 50 140 134 140 l46 0 0 65 0 66 38 -4 37 -4 0
-194z m135 -76 c0 -130 -2 -152 -20 -181 -27 -44 -60 -58 -100 -42 -35 14 -38
25 -11 39 38 21 51 71 51 205 l0 126 40 0 40 0 0 -147z m236 126 c16 -18 19
-37 19 -133 l0 -111 -82 -3 c-91 -3 -119 6 -133 43 -21 56 21 105 103 120 22
4 37 13 37 21 0 22 -26 27 -76 15 -26 -7 -49 -10 -51 -7 -12 12 9 58 30 66 12
5 47 9 78 9 45 1 60 -3 75 -20z m278 0 c25 -20 26 -23 26 -135 l0 -114 -40 0
-40 0 0 95 c0 90 -1 96 -22 104 -12 4 -30 6 -40 3 -16 -4 -18 -17 -18 -103 l0
-99 -40 0 -41 0 3 127 c3 147 -2 140 119 142 53 1 72 -3 93 -20z m332 15 c19
-5 20 -9 11 -35 -6 -16 -16 -29 -22 -29 -7 0 -11 -41 -10 -117 0 -94 -4 -124
-18 -150 -32 -59 -131 -90 -201 -63 -21 8 -26 16 -26 46 0 29 3 35 16 30 65
-25 130 -11 145 32 8 21 6 22 -42 22 -57 0 -93 19 -115 61 -35 69 -3 157 70
190 41 18 146 26 192 13z m255 -32 c26 -29 29 -40 29 -97 0 -56 -3 -69 -27
-95 -53 -59 -153 -61 -203 -4 -57 66 -48 166 21 212 29 20 43 23 93 20 51 -4
63 -9 87 -36z"/>
</g>
</svg>
